{"title":"MYLENE FARMER---BLEU NOIR( videoclip_17.03.2011)","uid":6249456,"size":71774552,"categoryP":"video","categoryS":"music_videos","magnet":"?xt=urn:btih:bf57c2ef6cf36de6a9055a25941347de68f2f44e&amp;dn=MYLENE+FARMER---BLEU+NOIR%28+videoclip_17.03.2011%29&amp;tr=udp%3A%2F%2Ftracker.openbittorrent.com%3A80&amp;tr=udp%3A%2F%2Fopen.demonii.com%3A1337&amp;tr=udp%3A%2F%2Ftracker.coppersurfer.tk%3A6969&amp;tr=udp%3A%2F%2Fexodus.desync.com%3A6969","seeders":0,"leechers":0,"uploader":null,"files":-1,"time":1300356330,"description":"\nFormat                           : AVI\nFormat/Info                      : Audio Video Interleave\nFile size                        : 68.4 MiB\nDuration                         : 4mn 1s\nOverall bit rate                 : 2 375 Kbps\nWriting library                  : TMPGEnc 4.0 XPress Version. 4.7.4.299\n\nVideo\nID                               : 0\nFormat                           : MPEG-4 Visual\nFormat profile                   : Advanced Simple@L5\nFormat settings, BVOP            : Yes\nFormat settings, QPel            : No\nFormat settings, GMC             : No warppoints\nFormat settings, Matrix          : Default (H.263)\nMuxing mode                      : Packed bitstream\nCodec ID                         : XVID\nCodec ID/Hint                    : XviD\nDuration                         : 4mn 1s\nBit rate                         : 950 Kbps\nWidth                            : 532 pixels\nHeight                           : 300 pixels\nDisplay aspect ratio             : 1.935\nFrame rate                       : 25.000 fps\nColor space                      : YUV\nChroma subsampling               : 4:2:0\nBit depth                        : 8 bits\nScan type                        : Progressive\nCompression mode                 : Lossy\nBits/(Pixel*Frame)               : 0.238\nStream size                      : 27.4 MiB (40%)\nWriting library                  : XviD 58\n\nAudio\nID                               : 1\nFormat                           : PCM\nFormat settings, Endianness      : Little\nFormat settings, Sign            : Signed\nCodec ID                         : 1\nCodec ID/Hint                    : Microsoft\nDuration                         : 4mn 1s\nBit rate mode                    : Constant\nBit rate                         : 1 411.2 Kbps\nChannel(s)                       : 2 channels\nSampling rate                    : 44.1 KHz\nBit depth                        : 16 bits\nStream size                      : 40.7 MiB (59%)\nInterleave, duration             : 40 ms (1.00 video frame)\nInterleave, preload duration     : 479 ms\n\n","torrent":{"xt":"urn:btih:bf57c2ef6cf36de6a9055a25941347de68f2f44e","amp;dn":"MYLENE+FARMER---BLEU+NOIR%28+videoclip_17.03.2011%29","amp;tr":["udp%3A%2F%2Ftracker.openbittorrent.com%3A80","udp%3A%2F%2Fopen.demonii.com%3A1337","udp%3A%2F%2Ftracker.coppersurfer.tk%3A6969","udp%3A%2F%2Fexodus.desync.com%3A6969"],"infoHash":"bf57c2ef6cf36de6a9055a25941347de68f2f44e","infoHashBuffer":{"type":"Buffer","data":[191,87,194,239,108,243,109,230,169,5,90,37,148,19,71,222,104,242,244,78]},"announce":[],"urlList":[]}}